Run_40005
nRows=4
nColumns=164

# SIMM Motion File Header:
name Run_40005
datacolumns 164
datarows 4
otherdata 1
range 3.08333300 3.10833300
endheader
time	pelvis_tilt	pelvis_list	pelvis_rotation	pelvis_tx	pelvis_ty	pelvis_tz	hip_flexion_r	hip_adduction_r	hip_rotation_r	knee_angle_r	ankle_angle_r	hip_flexion_l	hip_adduction_l	hip_rotation_l	knee_angle_l	ankle_angle_l	lumbar_extension	lumbar_bending	lumbar_rotation	arm_flex_r	arm_add_r	arm_rot_r	elbow_flex_r	pro_sup_r	arm_flex_l	arm_add_l	arm_rot_l	elbow_flex_l	pro_sup_l	subtalar_angle_r	mtp_angle_r	subtalar_angle_l	mtp_angle_l	wrist_flex_r	wrist_dev_r	wrist_flex_l	wrist_dev_l	LASI_tx	LASI_ty	LASI_tz	RASI_tx	RASI_ty	RASI_tz	LPSI_tx	LPSI_ty	LPSI_tz	RPSI_tx	RPSI_ty	RPSI_tz	RTH1_tx	RTH1_ty	RTH1_tz	RTH2_tx	RTH2_ty	RTH2_tz	RTH3_tx	RTH3_ty	RTH3_tz	LTH1_tx	LTH1_ty	LTH1_tz	LTH2_tx	LTH2_ty	LTH2_tz	LTH3_tx	LTH3_ty	LTH3_tz	RTB1_tx	RTB1_ty	RTB1_tz	RTB2_tx	RTB2_ty	RTB2_tz	RTB3_tx	RTB3_ty	RTB3_tz	LTB1_tx	LTB1_ty	LTB1_tz	LTB2_tx	LTB2_ty	LTB2_tz	LTB3_tx	LTB3_ty	LTB3_tz	RCAL_tx	RCAL_ty	RCAL_tz	RTOE_tx	RTOE_ty	RTOE_tz	RMT5_tx	RMT5_ty	RMT5_tz	LCAL_tx	LCAL_ty	LCAL_tz	LTOE_tx	LTOE_ty	LTOE_tz	LMT5_tx	LMT5_ty	LMT5_tz	LACR_tx	LACR_ty	LACR_tz	RACR_tx	RACR_ty	RACR_tz	CLAV_tx	CLAV_ty	CLAV_tz	C7_tx	C7_ty	C7_tz	RUA1_tx	RUA1_ty	RUA1_tz	RUA2_tx	RUA2_ty	RUA2_tz	RUA3_tx	RUA3_ty	RUA3_tz	RLEL_tx	RLEL_ty	RLEL_tz	RMEL_tx	RMEL_ty	RMEL_tz	LUA1_tx	LUA1_ty	LUA1_tz	LUA2_tx	LUA2_ty	LUA2_tz	LUA3_tx	LUA3_ty	LUA3_tz	LLEL_tx	LLEL_ty	LLEL_tz	LMEL_tx	LMEL_ty	LMEL_tz	RFAsuperior_tx	RFAsuperior_ty	RFAsuperior_tz	RFAradius_tx	RFAradius_ty	RFAradius_tz	RFAulna_tx	RFAulna_ty	RFAulna_tz	LFAsuperior_tx	LFAsuperior_ty	LFAsuperior_tz	LFAradius_tx	LFAradius_ty	LFAradius_tz	LFAulna_tx	LFAulna_ty	LFAulna_tz
      3.08333300	      0.97123140	    -10.71344517	     -8.84850281	      0.98441459	      1.00515490	     -0.30023783	     19.54167458	     18.89355435	      3.51268753	    -49.61444314	     28.04363391	     20.26856057	     -9.69765823	     -5.94424355	   -118.14125875	      4.15507431	    -24.73749470	     14.10493671	      9.18027526	     -0.14424138	    -35.56200850	      0.93645008	     92.05690638	    113.19009069	    -12.32628459	    -17.39984762	     15.08701046	    101.34936755	     89.08560499	      0.00000000	      0.00000000	      0.00000000	      0.00000000	      0.00000000	      0.00000000	      0.00000000	      0.00000000	      0.99924507	      0.99754809	     -0.43905883	      0.96628786	      1.03514453	     -0.17459845	      0.81073326	      1.04114780	     -0.37159824	      0.79691846	      1.04519459	     -0.29261274	      0.92082027	      0.86470699	     -0.12566790	      0.99997537	      0.76859186	     -0.13169319	      0.96488806	      0.64534687	     -0.18032727	      0.98130736	      0.78240101	     -0.47436680	      1.07369276	      0.67998753	     -0.45655668	      1.03729079	      0.56346644	     -0.43572906	      1.03587723	      0.36590851	     -0.27283743	      0.99411367	      0.30568610	     -0.21062666	      0.95744873	      0.21977462	     -0.28565711	      0.96568319	      0.42944726	     -0.36635140	      0.88029271	      0.45875207	     -0.41929608	      0.76483592	      0.45225087	     -0.35691290	      0.78151783	      0.10580016	     -0.30490040	      1.01422674	      0.06583860	     -0.31950030	      0.94289913	      0.04987205	     -0.22523448	      0.63708397	      0.57048194	     -0.34119642	      0.59844211	      0.33961376	     -0.34028092	      0.58201929	      0.41521555	     -0.42390515	      1.03273395	      1.47510173	     -0.46045547	      0.99335284	      1.46002372	     -0.11243508	      1.05422175	      1.41747918	     -0.24968194	      0.93165299	      1.51345987	     -0.28976909	      0.96568904	      1.35942299	     -0.02971954	      0.97301124	      1.26566265	     -0.02583478	      0.90283276	      1.26442661	      0.00859503	      0.89302350	      1.13646558	      0.07391860	      0.85737495	      1.11347186	      0.00287121	      1.01183696	      1.38462050	     -0.53870190	      1.00539741	      1.31155913	     -0.53181016	      0.91184859	      1.32412724	     -0.55728303	      0.88174810	      1.16959222	     -0.61970946	      0.81851527	      1.16965467	     -0.55633622	      0.99751783	      1.10230644	      0.06244386	      1.13410209	      1.04263030	     -0.03554472	      1.12551476	      1.00518757	      0.02713177	      0.96574487	      1.13429173	     -0.57376560	      1.07707158	      1.09162615	     -0.44402917	      1.06025769	      1.02677975	     -0.47171674
      3.09166700	      0.58227567	    -10.70810434	     -8.89658111	      0.98165070	      1.00491462	     -0.29903610	     17.69953686	     18.79250116	      4.02918573	    -49.28162094	     29.14952621	     24.16317281	     -9.93543168	     -4.85870754	   -118.82585942	      3.93431777	    -24.71113671	     13.76530726	     10.74409123	      1.53364651	    -35.26291387	      0.76722579	     93.59943067	    112.71353266	    -12.57587833	    -18.00860613	     15.98998160	    101.21544865	     89.06421268	      0.00000000	      0.00000000	      0.00000000	      0.00000000	      0.00000000	      0.00000000	      0.00000000	      0.00000000	      0.99635264	      0.99736179	     -0.43797490	      0.96312868	      1.03385129	     -0.17360364	      0.80827092	      1.04189895	     -0.37064863	      0.79421084	      1.04690187	     -0.29140155	      0.91467897	      0.86493514	     -0.12428350	      0.99030916	      0.76629552	     -0.13073823	      0.95074605	      0.64336234	     -0.17718793	      0.98595669	      0.78540728	     -0.47308911	      1.08622885	      0.68960605	     -0.45520990	      1.05644121	      0.57104793	     -0.43498510	      1.01097248	      0.36182106	     -0.27168520	      0.96801773	      0.30282548	     -0.20935204	      0.92813164	      0.21811092	     -0.28461489	      0.99151626	      0.43418505	     -0.36558216	      0.90534991	      0.45939667	     -0.41927388	      0.78933545	      0.44735283	     -0.35817554	      0.74878374	      0.10726340	     -0.30443206	      0.98079664	      0.06544641	     -0.31898797	      0.90949414	      0.04967998	     -0.22490935	      0.65565069	      0.56028283	     -0.34465318	      0.62866270	      0.32777553	     -0.33884439	      0.60855140	      0.40057259	     -0.42416997	      1.02921290	      1.47456970	     -0.46100005	      0.99713288	      1.45943092	     -0.11276511	      1.05396405	      1.41652016	     -0.25108040	      0.93103244	      1.51336209	     -0.28828530	      0.97400793	      1.35692896	     -0.03051991	      0.98261295	      1.26420487	     -0.02741798	      0.91210703	      1.26092910	      0.00655982	      0.90961339	      1.13313705	      0.07379658	      0.87297754	      1.10855799	      0.00369989	      1.00666363	      1.38423805	     -0.53925893	      0.99897704	      1.31157027	     -0.53285312	      0.90511579	      1.32605644	     -0.55681408	      0.87211992	      1.17311039	     -0.62156339	      0.80911555	      1.17351191	     -0.55814513	      1.01519385	      1.10362568	      0.05851116	      1.15187037	      1.05186937	     -0.04438750	      1.14667205	      1.01257144	      0.01734929	      0.95569454	      1.13614697	     -0.57669040	      1.06764627	      1.09071692	     -0.44808412	      1.04931491	      1.02649321	     -0.47607674
      3.10000000	      0.17458795	    -10.41687867	     -9.01298472	      0.97943557	      1.00547658	     -0.29774746	     15.64439316	     18.35185200	      4.72557464	    -48.54164340	     30.00140837	     27.87957953	     -9.84868273	     -4.00826715	   -118.81238498	      3.69993837	    -24.49622269	     13.06976946	     12.33044790	      2.64212177	    -34.88269768	      0.21652897	     95.84025450	    112.33013592	    -13.05096046	    -18.76099561	     16.77859712	    101.76880819	     89.95782079	      0.00000000	      0.00000000	      0.00000000	      0.00000000	      0.00000000	      0.00000000	      0.00000000	      0.00000000	      0.99404512	      0.99830588	     -0.43692211	      0.96039969	      1.03306232	     -0.17229607	      0.80631778	      1.04354092	     -0.36997110	      0.79206856	      1.04909180	     -0.29049446	      0.90824585	      0.86514172	     -0.12321580	      0.98064615	      0.76420749	     -0.12996518	      0.93597038	      0.64173900	     -0.17419832	      0.99049462	      0.79019674	     -0.47178639	      1.09726804	      0.70075835	     -0.45405916	      1.07407009	      0.58099721	     -0.43418601	      0.98498964	      0.35809474	     -0.27003601	      0.94061380	      0.30028655	     -0.20770415	      0.89839251	      0.21657307	     -0.28332042	      1.01633839	      0.44018440	     -0.36475627	      0.92936573	      0.46072701	     -0.41902596	      0.81359484	      0.44210321	     -0.35885073	      0.71608736	      0.10903817	     -0.30380998	      0.94734773	      0.06506661	     -0.31857532	      0.87597284	      0.04947719	     -0.22453501	      0.67338080	      0.54780827	     -0.34772299	      0.65976566	      0.31427117	     -0.33738111	      0.63555169	      0.38407593	     -0.42441721	      1.02562937	      1.47546675	     -0.46158437	      1.00123759	      1.46052882	     -0.11342762	      1.05407457	      1.41665877	     -0.25255341	      0.93087837	      1.51447788	     -0.28691428	      0.98359478	      1.35609886	     -0.03148801	      0.99177856	      1.26454318	     -0.02948055	      0.92133295	      1.25930715	      0.00470521	      0.92472446	      1.13174375	      0.07236514	      0.88755126	      1.10596220	      0.00299137	      1.00119502	      1.38569046	     -0.54009908	      0.99199811	      1.31347798	     -0.53436612	      0.89763681	      1.33011076	     -0.55666404	      0.86162465	      1.17850866	     -0.62339311	      0.79927014	      1.17922461	     -0.55960764	      1.03077749	      1.10715448	      0.05360966	      1.16756253	      1.06507500	     -0.05470836	      1.16600978	      1.02415871	      0.00600181	      0.94424411	      1.13981026	     -0.58039410	      1.05755847	      1.09402681	     -0.45159751	      1.03892795	      1.03032204	     -0.48036451
      3.10833300	     -0.27558493	     -9.83656744	     -9.20871506	      0.97779302	      1.00679745	     -0.29634657	     13.39725397	     17.58496227	      5.63560452	    -47.35210644	     30.62625632	     31.38360795	     -9.47559318	     -3.44736615	   -118.13010373	      3.67287999	    -24.02245642	     12.03669390	     13.85037166	      3.38213775	    -34.40113743	     -0.53591879	     98.52506821	    112.13636724	    -13.75194629	    -19.61074864	     17.32395335	    102.84093609	     91.60111772	      0.00000000	      0.00000000	      0.00000000	      0.00000000	      0.00000000	      0.00000000	      0.00000000	      0.00000000	      0.99240609	      1.00048306	     -0.43561621	      0.95822900	      1.03282667	     -0.17078310	      0.80480211	      1.04604447	     -0.36946554	      0.79059878	      1.05165019	     -0.28984134	      0.90138118	      0.86540600	     -0.12256960	      0.97070494	      0.76227366	     -0.12932410	      0.92025618	      0.64065826	     -0.17203192	      0.99487035	      0.79639328	     -0.47061651	      1.10674112	      0.71287243	     -0.45308475	      1.08998981	      0.59270992	     -0.43332993	      0.95801236	      0.35473363	     -0.26834355	      0.91208322	      0.29810550	     -0.20609381	      0.86819696	      0.21531939	     -0.28203116	      1.03982418	      0.44737869	     -0.36374647	      0.95225710	      0.46266300	     -0.41853953	      0.83778371	      0.43651277	     -0.35874863	      0.68332224	      0.11111559	     -0.30299657	      0.91380660	      0.06489242	     -0.31831027	      0.84228220	      0.04922309	     -0.22416414	      0.69039019	      0.53315749	     -0.35016197	      0.69236219	      0.29944431	     -0.33615837	      0.66367449	      0.36615961	     -0.42479745	      1.02198089	      1.47780313	     -0.46224687	      1.00555923	      1.46326333	     -0.11449579	      1.05443036	      1.41812533	     -0.25420310	      0.93084149	      1.51660960	     -0.28578609	      0.99280606	      1.35760222	     -0.03282681	      1.00044922	      1.26681888	     -0.03199140	      0.93060579	      1.25946979	      0.00333348	      0.93858099	      1.13201273	      0.06978847	      0.90112876	      1.10549585	      0.00076116	      0.99506028	      1.38929922	     -0.54130849	      0.98452210	      1.31746040	     -0.53642564	      0.88954445	      1.33621359	     -0.55680984	      0.85055373	      1.18569002	     -0.62482507	      0.78926208	      1.18662971	     -0.56035048	      1.04489447	      1.11295007	      0.04770203	      1.18096605	      1.08159862	     -0.06589611	      1.18328266	      1.03940828	     -0.00624740	      0.93246424	      1.14585469	     -0.58388293	      1.04727513	      1.10072144	     -0.45476827	      1.02937762	      1.03747116	     -0.48481151
